<?xml version="1.0" standalone="no"?>
<!DOCTYPE svg PUBLIC "-//W3C//DTD SVG 20010904//EN"
 "http://www.w3.org/TR/2001/REC-SVG-20010904/DTD/svg10.dtd">
<svg version="1.0" xmlns="http://www.w3.org/2000/svg"
 width="545.000000pt" height="262.000000pt" viewBox="0 0 545.000000 262.000000"
 preserveAspectRatio="xMidYMid meet">

<g transform="translate(0.000000,262.000000) scale(0.100000,-0.100000)"
fill="#000000" stroke="none">
<path d="M0 1310 l0 -1310 2725 0 2725 0 0 1310 0 1310 -2725 0 -2725 0 0
-1310z m1535 310 c40 -102 91 -232 113 -290 l41 -105 0 293 1 292 85 0 85 0 0
-435 0 -435 -119 0 -119 0 -59 158 c-33 86 -84 222 -114 302 l-54 145 -3 -303
-2 -302 -85 0 -85 0 0 435 0 436 121 -3 122 -3 72 -185z m655 120 l0 -70 -85
0 -85 0 0 70 0 70 85 0 85 0 0 -70z m1330 -365 l0 -435 -85 0 -85 0 0 435 0
435 85 0 85 0 0 -435z m340 365 l0 -70 -85 0 -85 0 0 70 0 70 85 0 85 0 0 -70z
m-1200 -255 c0 -74 0 -75 -25 -75 -14 0 -41 -7 -61 -15 -56 -23 -64 -55 -64
-270 l0 -185 -85 0 -85 0 0 305 0 305 80 0 80 0 0 -37 0 -37 31 32 c19 19 45
34 67 38 21 3 42 7 47 9 6 2 11 4 13 4 1 1 2 -33 2 -74z m400 64 c24 -5 59
-21 76 -34 56 -43 63 -82 66 -343 l3 -232 -77 0 c-70 0 -78 2 -78 19 0 11 -3
26 -6 35 -5 13 -9 12 -25 -8 -44 -56 -169 -72 -228 -29 -46 35 -63 77 -64 156
-1 142 57 196 221 205 l82 5 0 49 c0 69 -12 88 -57 88 -45 0 -73 -24 -73 -62
l0 -28 -80 0 c-79 0 -80 0 -80 25 0 37 23 86 53 114 48 44 170 62 267 40z
m-870 -304 l0 -305 -85 0 -85 0 0 305 0 305 85 0 85 0 0 -305z m1670 0 l0
-305 -85 0 -85 0 0 305 0 305 85 0 85 0 0 -305z"/>
<path d="M2933 1220 c-29 -12 -43 -40 -43 -89 0 -58 15 -89 46 -97 62 -16 102
41 103 144 l1 52 -42 -1 c-24 0 -53 -4 -65 -9z"/>
</g>
</svg>
