<?xml version="1.0" standalone="no"?>
<!DOCTYPE svg PUBLIC "-//W3C//DTD SVG 20010904//EN"
 "http://www.w3.org/TR/2001/REC-SVG-20010904/DTD/svg10.dtd">
<svg version="1.0" xmlns="http://www.w3.org/2000/svg"
 width="154.000000pt" height="58.000000pt" viewBox="0 0 154.000000 58.000000"
 preserveAspectRatio="xMidYMid meet">

<g transform="translate(0.000000,58.000000) scale(0.100000,-0.100000)"
fill="#000000" stroke="none">
<path d="M1220 300 l0 -220 25 0 25 0 0 220 0 220 -25 0 -25 0 0 -220z"/>
<path d="M90 295 l0 -215 25 0 25 0 0 165 c0 91 3 165 8 165 4 0 56 -75 116
-165 90 -136 113 -165 132 -165 l24 0 0 215 0 215 -25 0 -25 0 -2 -167 -3
-166 -110 166 c-98 148 -113 167 -137 167 l-28 0 0 -215z"/>
<path d="M520 485 c0 -20 5 -25 25 -25 20 0 25 5 25 25 0 20 -5 25 -25 25 -20
0 -25 -5 -25 -25z"/>
<path d="M1370 485 c0 -20 5 -25 25 -25 20 0 25 5 25 25 0 20 -5 25 -25 25
-20 0 -25 -5 -25 -25z"/>
<path d="M923 391 c-27 -17 -53 -48 -53 -64 0 -3 9 -7 21 -10 15 -4 28 2 43
20 42 49 146 26 146 -32 0 -20 -7 -23 -61 -29 -75 -9 -136 -32 -149 -57 -15
-27 -12 -82 5 -106 33 -47 149 -51 185 -8 17 21 30 19 30 -5 0 -14 7 -20 21
-20 20 0 20 4 17 135 -3 131 -4 135 -30 162 -37 37 -127 44 -175 14z m154
-187 c-8 -45 -29 -70 -73 -84 -41 -14 -70 -6 -90 25 -32 50 25 88 140 94 28 1
28 0 23 -35z"/>
<path d="M520 240 l0 -160 25 0 25 0 0 160 0 160 -25 0 -25 0 0 -160z"/>
<path d="M660 240 l0 -160 25 0 c25 0 25 0 25 98 0 122 17 162 73 176 26 7 37
15 37 28 0 25 -50 24 -84 -3 l-26 -20 0 20 c0 16 -6 21 -25 21 l-25 0 0 -160z"/>
<path d="M1370 240 l0 -160 25 0 25 0 0 160 0 160 -25 0 -25 0 0 -160z"/>
</g>
</svg>
